<?xml version="1.0" standalone="no"?>
<!DOCTYPE svg PUBLIC "-//W3C//DTD SVG 20010904//EN"
 "http://www.w3.org/TR/2001/REC-SVG-20010904/DTD/svg10.dtd">
<svg version="1.0" xmlns="http://www.w3.org/2000/svg"
 width="1280.000000pt" height="640.000000pt" viewBox="0 0 1280.000000 640.000000"
 preserveAspectRatio="xMidYMid meet">
<metadata>
Created by potrace 1.15, written by Peter Selinger 2001-2017
</metadata>
<g transform="translate(0.000000,640.000000) scale(0.100000,-0.100000)"
fill="#000000" stroke="none">
<path d="M4879 5255 c-181 -30 -346 -93 -709 -270 -429 -210 -577 -255 -824
-255 -279 1 -378 24 -1107 265 -360 119 -488 153 -675 179 -166 23 -394 31
-497 17 -184 -25 -378 -101 -507 -199 -141 -107 -295 -299 -380 -475 -135
-281 -154 -540 -94 -1241 13 -149 13 -180 2 -187 -18 -12 -24 -11 -43 7 -8 9
-23 13 -32 10 -13 -5 -15 -17 -10 -65 4 -32 9 -65 13 -74 7 -20 34 -23 34 -3
0 16 41 29 53 17 5 -5 24 -132 43 -282 60 -487 101 -686 177 -866 103 -244
247 -421 452 -554 50 -32 94 -63 98 -68 44 -49 60 -61 96 -71 31 -8 46 -8 63
2 16 8 89 12 238 13 174 1 237 5 330 23 206 39 327 75 494 148 119 52 516 260
641 336 226 137 405 234 498 272 176 70 331 53 809 -89 249 -75 457 -102 644
-85 193 18 317 55 408 121 76 54 100 145 52 194 -32 32 -79 44 -221 55 -239
19 -390 68 -541 176 -127 90 -210 213 -240 356 -34 158 15 268 157 351 50 30
-28 19 1139 157 421 50 952 113 1180 140 405 48 947 113 1890 225 2096 248
2032 242 2044 210 7 -19 52 -20 63 -1 7 13 50 12 333 -4 179 -11 375 -25 435
-31 160 -15 595 -66 775 -90 184 -25 227 -21 324 28 39 20 123 55 185 79 63
24 119 48 125 54 17 17 -22 44 -139 95 -60 26 -111 49 -112 50 -2 1 6 20 17
43 25 52 25 64 -2 89 -35 31 -60 41 -113 45 l-49 3 -15 -48 c-15 -43 -18 -47
-41 -42 -39 10 -42 18 -20 63 25 52 25 53 -7 84 -35 33 -73 48 -122 48 -36 0
-39 -2 -57 -48 l-19 -49 -32 13 -31 13 19 40 c27 57 24 76 -17 108 -30 22 -47
28 -93 28 l-56 0 -15 -45 c-8 -25 -15 -46 -16 -48 -1 -2 -17 5 -36 14 l-35 16
19 40 c12 24 17 50 14 63 -9 37 -62 68 -122 73 -50 4 -54 3 -64 -22 -33 -85
-26 -79 -62 -60 -18 9 -34 17 -35 19 -2 1 6 20 17 43 25 52 25 53 -7 84 -35
33 -73 48 -122 48 -36 0 -39 -3 -55 -45 -19 -48 -23 -51 -59 -34 l-23 10 24
50 25 50 -24 25 c-35 38 -72 54 -123 54 -44 0 -45 -1 -62 -47 -10 -27 -19 -49
-20 -51 -3 -4 -64 27 -64 32 0 2 9 25 21 51 l21 47 -24 25 c-30 33 -78 53
-126 53 -38 0 -40 -2 -58 -50 l-19 -50 -55 26 c-80 37 -98 31 -125 -42 -40
-106 -114 -207 -177 -240 -50 -26 -203 -44 -718 -84 -283 -22 -805 -62 -1160
-90 -355 -27 -991 -77 -1415 -110 -423 -33 -1094 -85 -1490 -115 -396 -31
-732 -54 -747 -51 -93 18 -240 122 -278 197 -45 88 -45 242 1 337 47 97 200
217 366 286 96 40 202 69 358 96 66 12 147 31 180 42 74 24 138 29 172 11 14
-7 29 -13 33 -13 14 0 31 58 28 96 -3 38 -4 39 -39 36 -23 -2 -41 3 -49 13 -7
8 -20 15 -29 15 -9 0 -26 16 -38 35 -43 66 -172 122 -347 150 -111 18 -361 18
-467 0z"/>
</g>
</svg>
