<?xml version="1.0" standalone="no"?>
<!DOCTYPE svg PUBLIC "-//W3C//DTD SVG 20010904//EN"
 "http://www.w3.org/TR/2001/REC-SVG-20010904/DTD/svg10.dtd">
<svg version="1.0" xmlns="http://www.w3.org/2000/svg"
 width="1280.000000pt" height="640.000000pt" viewBox="0 0 1280.000000 640.000000"
 preserveAspectRatio="xMidYMid meet">
<metadata>
Created by potrace 1.15, written by Peter Selinger 2001-2017
</metadata>
<g transform="translate(0.000000,640.000000) scale(0.100000,-0.100000)"
fill="#000000" stroke="none">
<path d="M1429 5061 c-342 -74 -590 -205 -783 -413 -99 -106 -162 -202 -246
-373 -116 -236 -191 -495 -254 -875 -89 -541 -113 -891 -81 -1190 52 -493 265
-761 660 -835 73 -14 130 -16 300 -12 296 6 346 23 670 224 354 220 546 319
686 354 151 39 256 21 694 -114 258 -80 327 -99 480 -134 110 -25 138 -27 335
-27 185 0 229 3 315 22 248 54 405 133 485 244 25 34 30 51 30 97 -1 84 -34
147 -104 195 -33 22 -49 26 -115 26 -150 0 -276 49 -383 148 -184 171 -151
375 81 495 l66 34 455 12 c250 6 610 16 800 21 457 13 1306 35 2230 60 212 6
547 15 745 20 198 5 542 14 765 20 887 24 1008 28 1031 40 15 9 55 11 123 8
112 -6 179 -26 246 -76 43 -31 123 -126 153 -182 l18 -33 87 7 c123 10 256 38
476 103 267 78 413 113 469 113 43 0 52 -4 75 -32 78 -96 174 -180 239 -211
59 -27 79 -32 148 -32 71 0 88 4 147 33 79 38 149 111 187 192 34 73 41 191
15 258 -37 99 -165 194 -298 222 -81 17 -84 21 -59 74 23 47 48 65 121 87 54
16 82 50 82 99 0 40 -28 85 -58 94 -10 4 -24 21 -30 40 -7 19 -19 40 -28 47
-23 19 -71 13 -119 -15 -24 -14 -53 -26 -65 -26 -12 0 -35 -13 -51 -29 -43
-43 -40 -89 9 -144 61 -67 72 -88 72 -138 0 -25 -2 -48 -4 -50 -5 -5 -426 97
-433 105 -10 10 23 79 46 97 13 11 48 26 76 35 69 19 90 44 90 101 0 41 -4 49
-42 82 -24 20 -43 41 -43 47 0 6 -9 23 -21 38 -27 34 -70 34 -124 1 -22 -13
-51 -25 -64 -25 -26 0 -91 -60 -91 -83 0 -32 22 -72 64 -117 44 -47 65 -106
52 -148 -6 -17 -19 -15 -219 30 -116 27 -218 51 -225 53 -10 4 -8 14 8 44 24
48 49 67 117 87 60 17 72 29 80 78 7 46 -13 93 -48 111 -15 8 -31 25 -34 37
-11 36 -46 68 -74 68 -14 0 -42 -10 -61 -21 -19 -12 -56 -28 -82 -35 -53 -16
-78 -44 -78 -87 0 -37 14 -61 67 -121 38 -43 43 -53 43 -97 0 -27 -2 -49 -5
-49 -8 0 -417 90 -432 95 -10 3 -10 11 -2 32 17 46 48 71 116 94 57 19 67 26
80 57 21 51 4 106 -43 134 -19 11 -34 27 -34 36 -1 36 -54 76 -87 66 -10 -3
-40 -16 -68 -29 -27 -13 -67 -30 -88 -39 -73 -31 -72 -94 3 -180 45 -52 57
-79 58 -134 1 -21 -2 -23 -26 -17 -163 41 -208 21 -261 -120 -36 -93 -73 -150
-125 -190 l-35 -27 -193 1 c-106 1 -456 6 -778 11 -322 5 -880 14 -1240 20
-360 6 -916 15 -1235 20 -319 5 -924 15 -1345 21 l-765 11 -27 26 c-65 60 -73
140 -23 225 23 40 39 53 108 87 115 56 212 78 426 95 261 21 334 39 399 99 39
35 74 115 80 181 12 152 -87 248 -368 358 -171 67 -385 89 -650 68 -231 -20
-353 -48 -790 -181 -213 -65 -310 -83 -440 -82 -152 1 -220 22 -501 157 -503
242 -787 354 -1049 414 -132 30 -371 36 -481 12z"/>
</g>
</svg>
