<?xml version="1.0" standalone="no"?>
<!DOCTYPE svg PUBLIC "-//W3C//DTD SVG 20010904//EN"
 "http://www.w3.org/TR/2001/REC-SVG-20010904/DTD/svg10.dtd">
<svg version="1.0" xmlns="http://www.w3.org/2000/svg"
 width="1189.000000pt" height="1280.000000pt" viewBox="0 0 1189.000000 1280.000000"
 preserveAspectRatio="xMidYMid meet">
<metadata>
Created by potrace 1.15, written by Peter Selinger 2001-2017
</metadata>
<g transform="translate(0.000000,1280.000000) scale(0.100000,-0.100000)"
fill="#CAEBF2" stroke="none">
<path d="M3370 12561 c0 -234 0 -239 -20 -234 -62 16 -150 -39 -150 -96 0 -45
38 -68 89 -52 21 6 50 23 65 37 l26 27 0 278 c0 154 -2 279 -5 279 -3 0 -5
-108 -5 -239z"/>
<path d="M11200 12359 c0 -170 4 -269 10 -267 5 2 41 34 80 71 63 62 70 72 70
107 0 61 -46 83 -112 55 -17 -7 -18 4 -18 149 0 132 -2 156 -15 156 -13 0 -15
-37 -15 -271z m88 -61 c21 -21 13 -64 -20 -109 l-33 -44 -3 70 c-2 57 0 72 14
82 22 16 27 16 42 1z"/>
<path d="M9477 12219 c-53 -12 -112 -44 -157 -85 l-40 -36 -45 46 c-96 96
-194 84 -212 -27 -5 -34 -5 -35 65 -72 76 -39 108 -67 97 -84 -13 -21 -62 -11
-105 22 -94 72 -119 76 -145 26 -23 -43 -19 -55 40 -119 30 -33 55 -69 55 -80
0 -25 4 -25 -76 5 -123 46 -153 35 -249 -94 -69 -93 -72 -126 -20 -192 40 -51
43 -76 14 -113 l-22 -27 -36 35 c-64 62 -135 74 -170 30 -12 -15 -21 -37 -21
-49 0 -33 46 -73 93 -83 38 -7 42 -11 40 -36 -3 -35 -29 -76 -48 -76 -9 0 -34
17 -58 38 -65 60 -88 72 -133 72 -59 0 -94 -30 -94 -80 0 -31 6 -44 35 -69 29
-25 45 -31 81 -31 25 0 44 -3 42 -7 -80 -156 -98 -228 -108 -433 -6 -119 -15
-185 -30 -235 -21 -71 -219 -475 -232 -475 -5 0 -8 11 -8 24 0 32 -42 166 -76
242 -68 155 -220 337 -360 434 -102 71 -242 136 -359 167 -88 23 -120 26 -265
27 -238 1 -390 -34 -605 -140 -309 -153 -562 -441 -669 -764 -60 -180 -67
-232 -73 -497 -6 -260 4 -402 38 -558 118 -543 511 -1003 1034 -1208 89 -35
272 -87 307 -87 10 0 18 -3 18 -7 0 -11 -227 -535 -285 -658 -139 -294 -287
-487 -420 -546 -252 -112 -449 109 -450 506 0 191 29 296 92 328 15 8 63 22
106 31 144 29 168 59 122 152 -48 99 -144 144 -321 152 -90 3 -125 1 -191 -16
-152 -39 -255 -103 -340 -213 -25 -32 -49 -59 -52 -59 -3 1 -31 40 -61 88
-243 384 -644 806 -1065 1117 -270 200 -519 352 -845 514 -742 369 -1588 591
-2478 651 -85 5 -306 10 -493 10 -277 0 -339 -2 -339 -13 0 -11 48 -15 233
-20 1181 -33 2323 -372 3252 -966 295 -189 540 -386 796 -641 346 -346 564
-643 765 -1046 l96 -192 -11 -148 c-6 -82 -16 -248 -21 -369 -14 -288 -26
-413 -56 -563 -47 -238 -112 -358 -286 -529 -99 -98 -244 -224 -280 -244 -17
-9 -18 -1 -18 115 0 68 -7 159 -15 203 -13 70 -84 288 -91 281 -1 -2 9 -46 23
-98 23 -82 26 -116 27 -250 0 -128 -4 -170 -22 -244 -12 -49 -28 -96 -34 -104
-7 -8 -82 -67 -168 -133 -218 -166 -380 -308 -488 -430 -52 -57 -101 -108
-110 -114 -30 -17 -250 -11 -332 9 -153 38 -315 130 -417 239 -52 55 -127 162
-138 198 -9 27 -28 24 -20 -3 4 -13 22 -55 40 -95 129 -278 393 -461 706 -489
l76 -6 -34 -80 c-75 -178 -97 -352 -70 -533 55 -355 240 -698 537 -995 166
-167 339 -300 572 -439 l86 -52 -29 -86 c-34 -101 -73 -274 -89 -393 -12 -88
-22 -525 -12 -515 3 3 9 65 13 138 9 149 44 338 90 485 44 139 119 312 136
312 7 0 44 -15 81 -34 230 -116 623 -241 882 -281 58 -9 120 -18 139 -21 l33
-5 -8 -57 c-10 -80 -12 -390 -3 -497 38 -420 328 -783 734 -919 355 -119 807
-37 1139 207 256 188 432 455 514 776 27 105 27 109 27 451 0 321 -2 352 -23
445 -117 521 -437 942 -889 1168 -83 42 -78 29 -93 232 -5 77 -12 161 -15 188
-2 26 -2 47 1 47 3 0 54 -45 112 -99 839 -782 2050 -1310 3348 -1460 295 -35
429 -42 822 -47 340 -4 382 -3 382 10 0 13 -13 16 -62 16 -193 1 -549 25 -803
56 -1352 162 -2596 732 -3431 1571 -115 116 -316 340 -335 376 -10 17 40 167
83 252 56 108 123 197 269 354 280 302 375 422 458 580 84 161 101 272 57 366
-38 82 -97 122 -154 106 -52 -15 -75 -32 -182 -136 -108 -104 -159 -145 -180
-145 -16 0 -6 149 16 260 82 402 411 732 800 806 111 21 267 14 372 -16 278
-78 519 -316 553 -545 20 -130 -14 -299 -84 -417 -115 -196 -326 -322 -537
-320 -176 2 -330 84 -433 232 -103 147 -8 412 184 514 30 16 55 30 56 31 4 2
-38 109 -46 118 -13 13 -103 -42 -158 -95 -111 -109 -158 -272 -119 -413 27
-97 83 -232 117 -281 104 -152 265 -237 449 -237 164 0 298 60 430 192 132
133 188 258 197 441 6 121 -7 187 -63 339 -94 251 -218 399 -424 506 -137 70
-219 89 -385 90 -167 0 -244 -18 -400 -95 -278 -136 -475 -381 -554 -690 -26
-99 -38 -304 -23 -394 l9 -58 -51 -24 c-215 -98 -457 -52 -532 103 -25 51 -28
67 -27 148 5 254 149 695 469 1433 69 158 159 366 200 463 l76 176 76 18 c770
178 1382 780 1571 1545 46 186 61 330 60 563 l-1 202 -13 -150 c-15 -179 -34
-287 -80 -443 -176 -612 -643 -1124 -1242 -1361 -116 -46 -243 -84 -243 -72 0
21 534 1281 723 1706 289 651 494 1047 782 1515 268 434 356 659 343 880 -8
142 -81 207 -201 179z m-2298 -1615 c334 -59 658 -327 781 -647 l30 -78 -93
-212 c-51 -117 -127 -293 -168 -391 -71 -171 -76 -181 -117 -207 -89 -56 -221
-96 -384 -115 l-48 -5 0 -131 0 -131 80 7 c43 3 116 17 162 30 46 14 84 24 84
23 3 -3 -191 -477 -278 -678 l-83 -194 -40 3 c-72 6 -228 41 -325 73 -558 183
-985 658 -1110 1235 -44 205 -36 327 37 538 65 189 157 338 293 480 152 158
292 254 475 326 238 93 463 116 704 74z m170 -7773 c169 -86 384 -260 510
-415 176 -215 295 -466 351 -741 29 -139 29 -242 0 -365 -73 -314 -248 -584
-499 -773 -205 -154 -437 -243 -697 -268 -549 -51 -1044 311 -1154 843 -16 77
-17 95 -5 150 15 74 46 157 78 213 l23 40 129 7 c384 22 630 115 838 317 217
210 338 527 349 913 2 60 7 108 11 108 4 0 34 -13 66 -29z"/>
<path d="M7031 10172 l-1 -232 -24 6 c-36 9 -92 -13 -121 -47 -30 -36 -32 -60
-7 -82 31 -28 86 -22 127 14 l35 31 0 184 c0 175 1 184 19 184 27 0 81 -48 97
-87 19 -44 17 -84 -5 -144 -15 -37 -16 -47 -5 -38 17 14 44 101 44 141 0 45
-23 88 -79 153 -28 32 -54 70 -57 84 -18 83 -23 47 -23 -167z"/>
<path d="M7350 1443 l0 -218 -38 0 c-91 0 -157 -100 -90 -136 28 -15 87 3 119
37 22 24 24 35 29 160 l5 135 47 -30 c63 -40 82 -71 75 -124 -2 -23 -8 -51
-12 -62 -3 -11 1 -8 10 8 12 22 15 49 12 136 -5 124 -13 144 -91 221 -25 24
-46 52 -46 61 0 10 -4 21 -10 24 -7 4 -10 -69 -10 -212z m75 66 c41 -36 65
-77 65 -111 0 -20 -5 -18 -46 22 -88 86 -105 164 -19 89z"/>
<path d="M7657 11862 c-38 -42 -41 -157 -7 -247 9 -24 6 -35 -28 -89 -63 -101
-78 -154 -61 -222 25 -97 131 -168 215 -145 l35 10 20 -47 c29 -67 29 -120 0
-143 -13 -11 -37 -19 -54 -19 l-30 0 22 24 c27 29 23 69 -9 86 -44 24 -87 -17
-75 -71 12 -55 82 -76 144 -44 52 26 57 76 18 180 -14 40 -14 41 14 75 73 87
30 207 -78 220 -44 5 -48 8 -62 43 -13 35 -12 41 8 81 52 105 41 231 -27 309
-19 22 -25 21 -45 -1z m71 -115 c2 -34 -3 -60 -19 -92 -12 -25 -26 -45 -30
-45 -14 0 -30 80 -24 113 18 87 68 103 73 24z m-20 -289 c10 -28 9 -35 -8 -53
-49 -52 -46 -135 5 -169 36 -23 55 -19 23 5 -34 25 -37 66 -9 100 11 13 21 22
23 19 8 -9 58 -154 58 -166 0 -6 -16 -14 -35 -17 -106 -17 -185 73 -156 179
11 40 67 134 80 134 4 0 12 -14 19 -32z m123 -117 c34 -35 39 -86 11 -121
l-18 -23 -30 79 c-16 43 -30 82 -32 86 -9 21 43 5 69 -21z"/>
<path d="M685 11652 l-140 -27 -3 -187 c-2 -158 -5 -186 -17 -182 -22 9 -83
-15 -100 -39 -51 -74 43 -118 106 -51 23 25 24 31 27 220 3 190 4 194 25 199
45 10 252 45 264 45 10 0 13 -36 13 -160 l0 -160 -39 0 c-65 0 -117 -70 -79
-108 20 -20 65 -14 97 14 l31 26 0 219 0 219 -22 -1 c-13 0 -86 -13 -163 -27z"/>
<path d="M4335 10528 c-77 -27 -133 -100 -121 -159 5 -26 3 -27 -45 -31 -66
-7 -113 -51 -135 -126 -27 -92 1 -162 81 -208 20 -11 20 -12 0 -34 -14 -16
-20 -36 -19 -70 2 -131 164 -231 261 -162 l30 21 17 -35 c12 -26 29 -41 64
-56 42 -19 53 -20 101 -10 98 21 151 74 151 154 l0 43 45 0 c83 1 145 79 145
184 0 68 -25 114 -74 138 l-35 16 20 25 c45 58 12 169 -67 225 -58 41 -118 46
-164 15 l-35 -24 -20 34 c-36 63 -120 88 -200 60z m143 -220 c6 -6 12 -26 12
-44 0 -43 19 -44 42 -4 23 40 60 40 99 1 37 -38 37 -63 -2 -94 -37 -29 -31
-47 16 -47 41 0 60 -27 51 -73 -12 -60 -51 -82 -93 -52 -29 20 -48 -1 -27 -29
20 -27 18 -46 -8 -73 -15 -16 -33 -23 -58 -23 -45 0 -60 14 -60 57 0 42 -19
43 -48 3 -28 -38 -56 -38 -93 -1 -38 39 -38 76 -1 99 36 21 30 42 -12 42 -18
0 -37 5 -44 12 -20 20 -14 82 9 107 21 23 30 23 88 5 22 -7 23 -5 16 17 -4 13
-8 38 -9 54 -2 51 77 78 122 43z"/>
<path d="M4430 10232 c-8 -3 -34 -25 -57 -50 -42 -44 -57 -92 -33 -107 6 -3
10 -16 10 -28 0 -35 26 -64 65 -71 19 -3 50 -9 68 -12 29 -5 37 0 80 46 37 39
48 57 44 73 -21 86 -28 104 -48 120 -11 9 -32 17 -44 17 -13 0 -34 4 -47 9
-13 4 -30 6 -38 3z"/>
<path d="M1455 9336 c-92 -40 -130 -169 -79 -267 8 -17 14 -33 11 -35 -2 -2
-25 3 -51 12 -105 36 -207 -1 -247 -90 -59 -131 36 -266 189 -266 l33 0 -55
-53 c-76 -75 -93 -143 -57 -223 36 -79 126 -123 210 -102 35 9 60 25 104 70
l57 59 0 -38 c1 -73 58 -158 123 -182 91 -35 203 14 236 102 17 44 13 118 -9
166 -11 24 -20 44 -20 46 0 1 24 -6 53 -16 67 -23 112 -23 163 0 112 51 141
204 55 290 -39 39 -71 53 -145 66 l-39 6 37 30 c20 17 48 51 62 75 22 38 26
54 22 99 -6 72 -38 118 -106 152 -84 41 -156 22 -230 -62 l-40 -46 -12 55
c-22 107 -86 166 -179 166 -31 -1 -70 -7 -86 -14z m184 -281 c15 -15 25 -38
29 -70 5 -44 3 -48 -14 -41 -42 18 -52 16 -82 -9 l-31 -26 -15 23 c-26 36 -31
85 -12 114 32 48 81 52 125 9z m205 -36 c57 -26 55 -107 -4 -149 -38 -27 -44
-25 -55 13 -8 24 -18 34 -42 42 -42 12 -41 25 1 69 35 38 59 43 100 25z m-365
-119 l44 -20 -27 -21 c-27 -21 -36 -71 -16 -84 6 -3 10 -11 10 -17 0 -16 -85
-4 -115 16 -61 40 -29 143 45 145 8 0 35 -8 59 -19z m430 -105 c32 -16 41 -33
41 -76 0 -61 -73 -89 -142 -53 l-30 16 22 23 c18 20 22 32 17 65 l-5 40 34 0
c19 0 48 -7 63 -15z m-377 -150 c13 -8 31 -15 40 -15 17 0 17 -2 4 -28 -22
-43 -54 -66 -91 -66 -90 0 -108 104 -26 160 l36 24 8 -29 c4 -17 17 -37 29
-46z m242 -29 c24 -51 21 -91 -10 -115 -61 -48 -134 -8 -134 71 l0 44 38 -4
c28 -3 42 1 56 17 26 28 31 27 50 -13z"/>
<path d="M9155 8055 c-5 -2 -22 -6 -37 -9 -15 -4 -44 -21 -64 -38 -66 -58 -79
-125 -45 -223 11 -30 19 -55 18 -55 -1 0 -20 7 -42 15 -143 51 -275 -29 -275
-166 0 -104 93 -189 208 -189 l35 0 -48 -42 c-81 -71 -103 -152 -66 -234 29
-64 81 -98 155 -102 74 -4 124 21 171 85 16 23 32 42 35 42 3 1 7 -15 8 -35 8
-107 91 -194 187 -194 40 0 100 22 128 48 56 51 72 152 37 231 -11 24 -20 44
-20 45 0 2 27 -6 59 -17 138 -45 260 33 261 166 0 98 -62 167 -171 188 l-58
11 48 47 c27 26 54 64 61 85 35 108 -35 224 -148 242 -62 10 -121 -16 -176
-77 l-44 -49 -12 54 c-13 62 -56 128 -97 149 -30 15 -91 28 -108 22z m115
-292 c23 -21 32 -40 37 -77 6 -46 5 -49 -13 -41 -46 19 -63 17 -88 -9 l-24
-27 -16 23 c-39 55 -26 127 27 148 35 14 45 12 77 -17z m234 -64 c14 -17 26
-37 26 -46 0 -25 -31 -69 -60 -87 -36 -21 -40 -20 -40 4 0 28 -35 60 -65 60
-25 0 -25 1 -10 29 37 73 106 92 149 40z m-385 -99 l44 -20 -27 -21 c-28 -22
-35 -66 -15 -86 18 -18 -33 -27 -75 -13 -95 31 -84 156 14 159 8 0 35 -8 59
-19z m430 -105 c72 -37 45 -145 -36 -145 -34 0 -93 24 -93 38 0 4 9 13 20 20
22 13 26 52 10 83 -10 17 -7 19 30 19 23 0 54 -7 69 -15z m-392 -137 c9 -10
29 -18 45 -18 34 0 35 -6 4 -51 -48 -70 -123 -72 -155 -5 -12 25 -11 33 3 62
9 19 30 43 48 54 l33 20 3 -22 c2 -13 11 -31 19 -40z m253 -38 c27 -52 25 -86
-5 -115 -46 -47 -116 -25 -135 43 -18 67 -16 72 34 66 39 -6 45 -4 62 20 11
14 20 26 21 26 2 0 12 -18 23 -40z"/>
<path d="M3030 7225 c-120 -33 -198 -114 -207 -213 -4 -38 0 -54 19 -82 30
-44 61 -60 122 -60 41 0 53 5 82 34 38 38 43 70 19 116 -18 35 -44 45 -115 45
-71 0 -77 20 -23 74 81 81 218 82 286 2 38 -46 50 -102 44 -206 -11 -212 -128
-383 -369 -545 -54 -36 -97 -71 -98 -77 0 -7 3 -13 6 -13 15 0 230 116 309
168 149 96 244 205 296 341 30 75 31 188 2 251 -59 132 -226 205 -373 165z"/>
<path d="M3507 7139 c-39 -23 -41 -86 -3 -111 20 -14 63 -8 79 10 50 55 -13
138 -76 101z"/>
<path d="M3498 6873 c-28 -32 -30 -58 -7 -86 38 -49 109 -24 109 38 0 56 -68
87 -102 48z"/>
<path d="M3120 5596 c-221 -57 -403 -230 -476 -453 -26 -78 -29 -101 -28 -208
1 -101 5 -133 28 -202 15 -46 32 -83 38 -83 6 0 7 7 2 18 -4 9 -9 66 -12 125
-3 81 0 127 13 180 86 359 453 586 769 477 164 -56 298 -189 312 -311 18 -156
-85 -345 -225 -410 -28 -13 -50 -29 -51 -36 0 -6 10 -36 21 -67 l22 -56 58 31
c77 41 152 123 192 206 38 83 49 209 24 289 -32 106 -79 220 -107 265 -62 96
-170 179 -286 220 -77 26 -219 34 -294 15z"/>
<path d="M10411 4948 c-10 -24 -71 -169 -136 -323 -66 -154 -120 -281 -121
-283 -1 -2 -19 8 -39 23 -77 52 -223 21 -254 -53 -33 -79 8 -133 107 -140 81
-6 143 22 170 75 25 49 312 726 312 736 0 4 -5 7 -10 7 -6 0 -19 -19 -29 -42z
m-287 -628 c35 -35 -85 -91 -184 -87 -56 2 -65 5 -65 21 0 28 43 55 115 71 66
14 116 13 134 -5z"/>
<path d="M1507 2225 c-72 -25 -122 -91 -115 -151 4 -34 3 -34 -35 -34 -87 0
-151 -79 -152 -187 0 -47 5 -68 21 -90 16 -22 58 -52 81 -59 2 0 -6 -18 -17
-39 -25 -48 -25 -78 -1 -131 36 -79 143 -138 208 -113 15 6 36 18 46 26 9 9
18 14 20 12 1 -2 9 -17 17 -33 48 -94 213 -92 294 4 20 24 26 42 26 79 l0 47
33 -3 c50 -6 98 26 130 87 48 93 30 194 -44 235 l-36 20 19 30 c29 47 23 105
-14 161 -61 89 -173 120 -232 65 l-23 -22 -20 37 c-34 67 -118 91 -206 59z
m151 -222 c6 -9 12 -29 12 -45 0 -37 21 -36 42 2 21 37 56 40 92 8 41 -38 42
-64 6 -98 -30 -28 -33 -57 -4 -46 8 3 25 1 38 -4 32 -12 42 -59 22 -99 -20
-38 -50 -48 -83 -26 -34 22 -52 6 -29 -26 9 -13 16 -31 16 -40 0 -26 -48 -59
-85 -59 -38 0 -55 17 -59 57 -3 27 -36 48 -36 22 0 -19 -31 -49 -51 -49 -10 0
-31 12 -48 26 -40 33 -42 76 -6 100 36 23 32 44 -8 44 -42 0 -57 15 -57 60 0
67 38 94 95 68 34 -15 41 -5 22 34 -13 28 -14 36 -3 53 30 45 95 54 124 18z"/>
<path d="M1610 1933 c-8 -3 -34 -24 -57 -47 -33 -31 -43 -49 -43 -73 0 -17 5
-35 10 -38 6 -3 10 -19 10 -34 0 -33 24 -56 65 -64 17 -4 45 -9 63 -13 29 -6
37 -2 76 37 55 57 58 66 39 130 -19 66 -30 79 -80 89 -21 4 -45 10 -53 13 -8
3 -22 3 -30 0z"/>
<path d="M9775 1526 c-92 -41 -130 -169 -79 -267 8 -17 14 -33 11 -35 -2 -2
-23 3 -47 11 -82 29 -174 12 -222 -42 -26 -28 -48 -88 -48 -128 0 -102 94
-185 208 -185 l33 0 -54 -52 c-78 -77 -94 -154 -51 -240 31 -61 127 -105 194
-89 53 12 74 26 124 83 l46 53 0 -30 c0 -80 52 -164 117 -191 39 -17 101 -18
140 -3 34 13 80 55 99 91 20 39 17 125 -6 177 -11 24 -20 44 -20 46 0 1 26 -7
58 -18 102 -34 192 -6 243 77 24 39 25 125 2 173 -19 41 -81 89 -124 97 -16 3
-42 9 -58 12 l-30 5 40 36 c127 115 96 287 -59 333 -72 22 -156 -14 -211 -90
l-27 -38 -12 58 c-13 63 -42 112 -85 144 -34 25 -138 33 -182 12z m199 -301
c9 -18 16 -47 16 -65 0 -27 -3 -31 -17 -25 -41 17 -51 15 -81 -10 l-32 -27
-20 46 c-22 49 -19 85 8 109 41 36 102 22 126 -28z m189 -16 c63 -28 59 -103
-6 -150 l-42 -31 -3 31 c-3 32 -34 61 -64 61 -23 0 -23 7 2 48 29 47 69 61
113 41z m-365 -119 l42 -19 -26 -26 c-26 -26 -28 -44 -9 -87 16 -40 -112 -10
-134 30 -18 34 -13 62 18 93 34 34 51 35 109 9z m431 -105 c32 -16 41 -33 41
-76 0 -61 -73 -89 -142 -53 l-30 16 22 22 c23 25 28 49 16 84 -7 20 -4 22 29
22 20 0 49 -7 64 -15z m-377 -150 c13 -8 31 -15 40 -15 17 0 17 -2 4 -28 -49
-94 -167 -86 -166 12 1 35 18 61 57 88 l28 18 8 -30 c4 -16 17 -36 29 -45z
m242 -29 c34 -71 5 -136 -60 -136 -50 0 -76 28 -82 88 -5 55 -2 58 29 42 21
-12 58 2 72 26 13 22 24 17 41 -20z"/>
</g>
</svg>
